<svg width="488" height="735" viewBox="0 0 488 735" fill="none" xmlns="http://www.w3.org/2000/svg">
<mask id="path-1-inside-1_34_2" fill="white">
<path fill-rule="evenodd" clip-rule="evenodd" d="M0 240.429C0 107.644 109.06 0 243.592 0C378.124 0 487.184 107.644 487.184 240.429V735H6.74675e-06V240.486C2.249e-06 240.467 0 240.448 0 240.429Z"/>
</mask>
<path d="M487.184 735V736H488.184V735H487.184ZM6.74675e-06 735H-0.999993V736H6.74675e-06V735ZM6.74675e-06 240.486L1.00001 240.486L1.00001 240.486L6.74675e-06 240.486ZM1 240.429C1 108.208 109.6 1 243.592 1V-1C108.52 -1 -1 107.079 -1 240.429H1ZM243.592 1C377.584 1 486.184 108.208 486.184 240.429H488.184C488.184 107.079 378.664 -1 243.592 -1V1ZM486.184 240.429V735H488.184V240.429H486.184ZM487.184 734H6.74675e-06V736H487.184V734ZM1.00001 735V240.486H-0.999993V735H1.00001ZM1.00001 240.486C1 240.467 1 240.448 1 240.429H-1C-1 240.448 -0.999998 240.467 -0.999993 240.487L1.00001 240.486Z" fill="white" mask="url(#path-1-inside-1_34_2)"/>
</svg>
