<svg width="246" height="553" viewBox="0 0 246 553" fill="none" xmlns="http://www.w3.org/2000/svg">
<mask id="path-1-inside-1_14_10" fill="white">
<path fill-rule="evenodd" clip-rule="evenodd" d="M1.96626e-06 388.112C8.80327e-07 479.177 73.8227 553 164.888 553L579 553L579 6.90451e-06L157.375 1.87668e-06C69.7971 3.92712 5.68611e-06 76.1723 4.6302e-06 164.719L1.96626e-06 388.112Z"/>
</mask>
<path fill-rule="evenodd" clip-rule="evenodd" d="M1.96626e-06 388.112C8.80327e-07 479.177 73.8227 553 164.888 553L579 553L579 6.90451e-06L157.375 1.87668e-06C69.7971 3.92712 5.68611e-06 76.1723 4.6302e-06 164.719L1.96626e-06 388.112Z" fill="url(#paint0_linear_14_10)"/>
<path d="M579 553L579 554L580 554L580 553L579 553ZM579 6.90451e-06L580 6.91643e-06L580 -0.999993L579 -0.999993L579 6.90451e-06ZM157.375 1.87668e-06L157.375 -0.999998L157.353 -0.999998L157.33 -0.999022L157.375 1.87668e-06ZM164.888 552C74.375 552 1 478.625 1 388.112L-0.999998 388.112C-0.999999 479.73 73.2704 554 164.888 554L164.888 552ZM579 552L164.888 552L164.888 554L579 554L579 552ZM578 6.89258e-06L578 553L580 553L580 6.91643e-06L578 6.89258e-06ZM157.375 1L579 1.00001L579 -0.999993L157.375 -0.999998L157.375 1ZM1 164.719C1.00001 76.7096 70.3738 4.90228 157.42 0.999025L157.33 -0.999022C69.2204 2.95197 -0.999994 75.635 -0.999995 164.719L1 164.719ZM1 388.112L1 164.719L-0.999995 164.719L-0.999998 388.112L1 388.112Z" fill="white" mask="url(#path-1-inside-1_14_10)"/>
<defs>
<linearGradient id="paint0_linear_14_10" x1="3.29723e-06" y1="276.5" x2="579" y2="276.5" gradientUnits="userSpaceOnUse">
<stop/>
<stop offset="1" stop-color="#131313"/>
</linearGradient>
</defs>
</svg>
