<svg width="488" height="735" viewBox="0 0 488 735" fill="none" xmlns="http://www.w3.org/2000/svg">
<mask id="path-1-inside-1_3_21" fill="white">
<path fill-rule="evenodd" clip-rule="evenodd" d="M0 240.429C0 107.644 109.06 0 243.592 0C378.124 0 487.184 107.644 487.184 240.429V735H6.74675e-06V240.486C2.249e-06 240.467 0 240.448 0 240.429Z"/>
</mask>
<path d="M487.184 735V736.653H488.837V735H487.184ZM6.74675e-06 735H-1.65354V736.653H6.74675e-06V735ZM6.74675e-06 240.486H1.65355L1.65355 240.486L6.74675e-06 240.486ZM1.65354 240.429C1.65354 108.577 109.953 1.65354 243.592 1.65354V-1.65354C108.167 -1.65354 -1.65354 106.71 -1.65354 240.429H1.65354ZM243.592 1.65354C377.231 1.65354 485.53 108.577 485.53 240.429H488.837C488.837 106.71 379.017 -1.65354 243.592 -1.65354V1.65354ZM485.53 240.429V735H488.837V240.429H485.53ZM487.184 733.346H6.74675e-06V736.653H487.184V733.346ZM1.65355 735V240.486H-1.65354V735H1.65355ZM1.65355 240.486C1.65355 240.467 1.65354 240.448 1.65354 240.429H-1.65354C-1.65354 240.448 -1.65354 240.467 -1.65354 240.487L1.65355 240.486Z" fill="white" mask="url(#path-1-inside-1_3_21)"/>
</svg>
